<?xml version="1.0" encoding="UTF-8"?>
<!DOCTYPE svg PUBLIC "-//W3C//DTD SVG 1.1//EN" "http://www.w3.org/Graphics/SVG/1.1/DTD/svg11.dtd">
<svg xmlns="http://www.w3.org/2000/svg" version="1.1" width="180px" height="180px" style="shape-rendering:geometricPrecision; text-rendering:geometricPrecision; image-rendering:optimizeQuality; fill-rule:evenodd; clip-rule:evenodd" xmlns:xlink="http://www.w3.org/1999/xlink">
<g><path style="opacity:0.982" fill="#f05132" d="M 86.5,3.5 C 90.059,3.40814 93.3924,4.24148 96.5,6C 122,31.5 147.5,57 173,82.5C 175.706,86.6798 176.039,91.0132 174,95.5C 147.833,121.667 121.667,147.833 95.5,174C 91.0132,176.039 86.6798,175.706 82.5,173C 57,147.5 31.5,122 6,96.5C 3.14354,92.3611 2.8102,88.0277 5,83.5C 22.6805,65.6527 40.5139,47.986 58.5,30.5C 65.1522,36.6519 71.6522,42.9852 78,49.5C 76.168,56.841 78.5014,62.5076 85,66.5C 85.6667,82.5 85.6667,98.5 85,114.5C 76.1106,120.726 75.2772,127.893 82.5,136C 93.1675,140.666 99.8342,137.333 102.5,126C 102.168,121.498 100.168,117.998 96.5,115.5C 95.3338,99.5104 95.1671,83.5104 96,67.5C 101.667,73.1667 107.333,78.8333 113,84.5C 111.357,97.1882 116.857,103.021 129.5,102C 137.374,97.9487 139.541,91.7821 136,83.5C 131.826,78.6652 126.659,76.8319 120.5,78C 114.333,71.8333 108.167,65.6667 102,59.5C 103.033,47.1984 97.1998,41.365 84.5,42C 78.1667,35.6667 71.8333,29.3333 65.5,23C 72.1189,15.8734 79.1189,9.37337 86.5,3.5 Z"/></g>
</svg>
